<?xml version="1.0" encoding="utf-8"?>
<!-- Generator: Adobe Illustrator 16.0.0, SVG Export Plug-In . SVG Version: 6.00 Build 0)  -->
<!DOCTYPE svg PUBLIC "-//W3C//DTD SVG 1.1//EN" "http://www.w3.org/Graphics/SVG/1.1/DTD/svg11.dtd">
<svg version="1.1" id="Calque_1" xmlns="http://www.w3.org/2000/svg" xmlns:xlink="http://www.w3.org/1999/xlink" x="0px" y="0px"
	 width="222.449px" height="40.029px" viewBox="0 0 222.449 40.029" enable-background="new 0 0 222.449 40.029"
	 xml:space="preserve">
<g>
	<rect x="49.029" y="5.869" fill="#1D1D1B" width="3.965" height="28.145"/>
	<path fill="#1D1D1B" d="M69.064,14.854h3.965v19.161h-3.965v-1.582c-0.794,0.664-1.738,1.119-2.832,1.367l-0.215,0.039
		c-0.625,0.117-1.276,0.176-1.953,0.176c-0.677,0-1.328-0.059-1.953-0.176l-0.215-0.039c-2.109-0.441-3.763-1.492-4.961-3.145
		c-1.224-1.652-1.836-3.73-1.836-6.23c0-2.512,0.612-4.602,1.836-6.269c1.224-1.653,2.898-2.688,5.02-3.105l0.195-0.059
		c0.612-0.105,1.25-0.156,1.914-0.156s1.302,0.051,1.914,0.156l0.195,0.059c1.12,0.234,2.083,0.69,2.891,1.367V14.854z
		 M69.064,24.405c0-1.574-0.319-2.832-0.957-3.77c-0.833-1.223-2.181-1.835-4.043-1.835c-1.875,0-3.229,0.612-4.063,1.835
		c-0.625,0.951-0.937,2.213-0.937,3.789s0.312,2.832,0.937,3.77c0.834,1.236,2.188,1.855,4.063,1.855
		c1.862,0,3.21-0.613,4.043-1.836c0.638-0.938,0.957-2.195,0.957-3.77V24.405z"/>
	<path fill="#1D1D1B" d="M101.959,24.424c0,2.5-0.606,4.576-1.817,6.23s-2.871,2.703-4.98,3.145l-0.215,0.039
		c-0.625,0.117-1.276,0.176-1.953,0.176c-0.677,0-1.328-0.059-1.953-0.176l-0.195-0.039c-1.107-0.246-2.058-0.703-2.852-1.367v1.582
		h-3.965V5.869h3.965v10.547c0.808-0.677,1.777-1.133,2.91-1.366l0.176-0.06c0.612-0.104,1.25-0.156,1.914-0.156
		s1.302,0.053,1.914,0.156l0.195,0.06c2.122,0.417,3.796,1.451,5.02,3.104C101.347,19.821,101.959,21.911,101.959,24.424
		 M92.994,30.049c1.875,0,3.229-0.617,4.062-1.855c0.625-0.938,0.938-2.195,0.938-3.77s-0.313-2.84-0.938-3.789
		c-0.833-1.224-2.187-1.835-4.062-1.835c-1.862,0-3.21,0.611-4.043,1.835c-0.638,0.938-0.957,2.193-0.957,3.77v0.039
		c0,1.576,0.319,2.832,0.957,3.77C89.784,29.438,91.132,30.049,92.994,30.049"/>
	<path fill="#1D1D1B" d="M118.064,14.854h3.965v19.161h-3.965v-1.582c-0.794,0.664-1.738,1.119-2.832,1.367l-0.215,0.039
		c-0.625,0.117-1.276,0.176-1.953,0.176s-1.328-0.059-1.953-0.176l-0.215-0.039c-2.109-0.441-3.763-1.492-4.961-3.145
		c-1.224-1.652-1.836-3.73-1.836-6.23c0-2.512,0.612-4.602,1.836-6.269c1.224-1.653,2.898-2.688,5.02-3.105l0.195-0.059
		c0.612-0.105,1.25-0.156,1.914-0.156s1.302,0.051,1.914,0.156l0.195,0.059c1.12,0.234,2.083,0.69,2.891,1.367V14.854z
		 M118.064,24.405c0-1.574-0.319-2.832-0.957-3.77c-0.833-1.223-2.181-1.835-4.043-1.835c-1.875,0-3.229,0.612-4.063,1.835
		c-0.625,0.951-0.937,2.213-0.937,3.789s0.312,2.832,0.937,3.77c0.834,1.236,2.188,1.855,4.063,1.855
		c1.862,0,3.21-0.613,4.043-1.836c0.638-0.938,0.957-2.195,0.957-3.77V24.405z"/>
	<path fill="#1D1D1B" d="M128.943,34.014h-3.965V14.873h3.965v1.582c0.794-0.664,1.745-1.126,2.852-1.386l0.195-0.039
		c0.625-0.118,1.276-0.176,1.953-0.176v3.965c-1.862,0-3.21,0.612-4.043,1.835c-0.638,0.938-0.957,2.195-0.957,3.77V34.014z"/>
	<path fill="#1D1D1B" d="M153.908,24.424c0,2.5-0.605,4.576-1.816,6.23s-2.871,2.703-4.98,3.145l-0.215,0.039
		c-0.625,0.117-1.276,0.176-1.953,0.176s-1.328-0.059-1.953-0.176l-0.195-0.039c-1.106-0.246-2.058-0.703-2.852-1.367v1.582h-3.965
		V5.869h3.965v10.547c0.808-0.677,1.777-1.133,2.91-1.366l0.176-0.06c0.612-0.104,1.25-0.156,1.914-0.156s1.302,0.053,1.914,0.156
		l0.195,0.06c2.122,0.417,3.796,1.451,5.02,3.104C153.297,19.821,153.908,21.911,153.908,24.424 M144.943,30.049
		c1.875,0,3.229-0.617,4.062-1.855c0.625-0.938,0.938-2.195,0.938-3.77s-0.312-2.84-0.938-3.789
		c-0.834-1.224-2.188-1.835-4.062-1.835c-1.862,0-3.21,0.611-4.043,1.835c-0.638,0.938-0.957,2.193-0.957,3.77v0.039
		c0,1.576,0.319,2.832,0.957,3.77C141.733,29.438,143.081,30.049,144.943,30.049"/>
	<path fill="#1D1D1B" d="M173.908,26.143H160.1c0.508,2.604,2.188,3.906,5.039,3.906c1.159,0,2.175-0.215,3.047-0.645
		c0.859-0.443,1.478-1.047,1.854-1.816l3.556,1.738c-0.716,1.471-1.823,2.617-3.32,3.438c-1.497,0.834-3.21,1.25-5.137,1.25
		c-2.786,0-5.007-0.871-6.66-2.617c-1.667-1.732-2.5-4.057-2.5-6.973c0-2.918,0.812-5.241,2.441-6.972
		c1.628-1.746,3.802-2.618,6.523-2.618c2.383,0,4.355,0.677,5.918,2.032c1.562,1.34,2.526,3.183,2.891,5.527
		c0.104,0.6,0.156,1.219,0.156,1.855v0.176V26.143z M169.729,22.393c-0.561-2.396-2.155-3.594-4.785-3.594s-4.226,1.198-4.785,3.594
		H169.729z"/>
	<path fill="#1D1D1B" d="M179.979,34.014h-3.965V14.873h3.965v1.582c0.794-0.664,1.745-1.126,2.852-1.386l0.195-0.039
		c0.625-0.118,1.276-0.176,1.953-0.176v3.965c-1.862,0-3.21,0.612-4.043,1.835c-0.638,0.938-0.957,2.195-0.957,3.77V34.014z"/>
	<path fill="#1D1D1B" d="M190.166,12.412c-0.612,0-1.126-0.214-1.543-0.644c-0.43-0.431-0.645-0.944-0.645-1.543
		c0-0.6,0.215-1.113,0.645-1.543c0.417-0.417,0.931-0.625,1.543-0.625c0.599,0,1.106,0.208,1.523,0.625
		c0.43,0.43,0.645,0.943,0.645,1.543c0,0.599-0.215,1.112-0.645,1.543C191.272,12.198,190.765,12.412,190.166,12.412
		 M188.174,14.834h3.966v19.18h-3.966V14.834z"/>
	<path fill="#1D1D1B" d="M211.979,26.143H198.17c0.508,2.604,2.188,3.906,5.039,3.906c1.159,0,2.175-0.215,3.047-0.645
		c0.859-0.443,1.478-1.047,1.854-1.816l3.556,1.738c-0.716,1.471-1.823,2.617-3.32,3.438c-1.497,0.834-3.21,1.25-5.137,1.25
		c-2.786,0-5.007-0.871-6.66-2.617c-1.667-1.732-2.5-4.057-2.5-6.973c0-2.918,0.812-5.241,2.441-6.972
		c1.628-1.746,3.802-2.618,6.523-2.618c2.383,0,4.355,0.677,5.918,2.032c1.562,1.34,2.526,3.183,2.891,5.527
		c0.104,0.6,0.156,1.219,0.156,1.855v0.176V26.143z M207.799,22.393c-0.561-2.396-2.155-3.594-4.785-3.594s-4.226,1.198-4.785,3.594
		H207.799z"/>
	<path fill="#1D1D1B" d="M217.861,29.659c0.599,0,1.105,0.215,1.523,0.645c0.43,0.418,0.645,0.924,0.645,1.523
		c0,0.611-0.215,1.127-0.645,1.543c-0.418,0.43-0.925,0.645-1.523,0.645c-0.612,0-1.126-0.215-1.543-0.645
		c-0.43-0.416-0.646-0.932-0.646-1.543c0-0.6,0.216-1.105,0.646-1.523C216.735,29.874,217.249,29.659,217.861,29.659"/>
	<path fill="#1D1D1B" d="M21.029,2.015c-6.627,0-12,5.373-12,12v12c0,6.627,5.373,12,12,12s12-5.373,12-12v-12
		C33.029,7.388,27.656,2.015,21.029,2.015 M21.029,6.015c1.218,0,2.368,0.28,3.402,0.77L13.029,18.187v-4.172
		C13.029,9.604,16.618,6.015,21.029,6.015 M13.029,23.842L27.518,9.354c0.947,1.313,1.511,2.921,1.511,4.661v2.172L14.54,30.676
		c-0.947-1.314-1.511-2.922-1.511-4.662V23.842z M21.029,34.014c-1.218,0-2.368-0.281-3.402-0.77l11.402-11.402v4.172
		C29.029,30.426,25.44,34.014,21.029,34.014"/>
</g>
</svg>
