<?xml version="1.0" encoding="utf-8"?>
<!-- Generator: Adobe Illustrator 21.0.2, SVG Export Plug-In . SVG Version: 6.00 Build 0)  -->
<svg version="1.1" id="Layer_1" xmlns="http://www.w3.org/2000/svg" xmlns:xlink="http://www.w3.org/1999/xlink" x="0px" y="0px"
	 viewBox="0 0 32 32" style="enable-background:new 0 0 32 32;" xml:space="preserve">
<path d="M21.9,8.2H10.1c-1.1,0-2,0.9-2,2v11.7c0,1.1,0.9,2,2,2h11.7c1.1,0,2-0.9,2-2V10.1C23.8,9,23,8.2,21.9,8.2z M16,12.9
	c1.7,0,3.1,1.4,3.1,3c0,1.7-1.4,3-3.1,3c-1.7,0-3.1-1.4-3.1-3C12.9,14.3,14.3,12.9,16,12.9z M21.9,21.4c0,0.3-0.1,0.5-0.5,0.5H10.6
	c-0.3,0-0.5-0.1-0.5-0.5v-6.9l1.2,0.3c-0.1,0.4-0.2,0.9-0.2,1.3c0,2.6,2.2,4.7,4.9,4.7c2.7,0,4.9-2.1,4.9-4.7c0-0.5-0.1-0.9-0.2-1.3
	l1.2-0.3L21.9,21.4L21.9,21.4z M21.9,12.6c0,0.3-0.2,0.5-0.5,0.5h-2c-0.3,0-0.5-0.2-0.5-0.5v-2c0-0.3,0.2-0.5,0.5-0.5h2
	c0.3,0,0.5,0.2,0.5,0.5C21.9,10.6,21.9,12.6,21.9,12.6z"/>
</svg>
